<svg width="20" height="20" viewBox="0 0 20 20" fill="none" xmlns="http://www.w3.org/2000/svg">
<path d="M16.5855 7.155C16.546 7.06455 16.4907 6.98187 16.4222 6.91083L11.4222 1.91083C11.3511 1.84232 11.2685 1.78701 11.178 1.7475C11.153 1.73583 11.1263 1.72916 11.0997 1.72C11.0299 1.69627 10.9574 1.68198 10.8838 1.6775C10.8663 1.67583 10.8505 1.66666 10.833 1.66666H4.99967C4.08051 1.66666 3.33301 2.41416 3.33301 3.33333V16.6667C3.33301 17.5858 4.08051 18.3333 4.99967 18.3333H14.9997C15.9188 18.3333 16.6663 17.5858 16.6663 16.6667V7.5C16.6663 7.4825 16.6572 7.46666 16.6555 7.44833C16.6514 7.37476 16.6371 7.30212 16.613 7.2325C16.6047 7.20583 16.5972 7.18 16.5855 7.155ZM13.8213 6.66666H11.6663V4.51166L13.8213 6.66666ZM4.99967 16.6667V3.33333H9.99967V7.5C9.99967 7.72101 10.0875 7.93297 10.2438 8.08925C10.4 8.24553 10.612 8.33333 10.833 8.33333H14.9997L15.0013 16.6667H4.99967Z" fill="#414141"/>
<path d="M6.66699 10H13.3337V11.6667H6.66699V10ZM6.66699 13.3333H13.3337V15H6.66699V13.3333ZM6.66699 6.66666H8.33366V8.33333H6.66699V6.66666Z" fill="#414141"/>
</svg>
