<svg width="17" height="17" viewBox="0 0 17 17" fill="none" xmlns="http://www.w3.org/2000/svg">
<path d="M14.2514 7.0935H4.82757V5.06177C4.82757 4.31477 5.43137 3.70728 6.17383 3.70728C6.9163 3.70728 7.5201 4.31477 7.5201 5.06177H8.86636C8.86636 3.56777 7.65876 2.3528 6.17383 2.3528C4.68891 2.3528 3.48131 3.56777 3.48131 5.06177V7.0935H2.13505C1.95652 7.0935 1.78531 7.16485 1.65907 7.29186C1.53283 7.41887 1.46191 7.59112 1.46191 7.77074V9.12523C1.46191 10.8901 2.58874 12.3916 4.15444 12.9516V15.2204H5.5007V13.1887H10.8858V15.2204H12.232V12.9516C13.7977 12.3916 14.9245 10.8901 14.9245 9.12523V7.77074C14.9245 7.59112 14.8536 7.41887 14.7274 7.29186C14.6012 7.16485 14.4299 7.0935 14.2514 7.0935ZM13.5783 9.12523C13.5783 10.6192 12.3707 11.8342 10.8858 11.8342H5.5007C4.01577 11.8342 2.80818 10.6192 2.80818 9.12523V8.44798H13.5783V9.12523Z" fill="#0077B6"/>
</svg>
