<svg width="17" height="17" viewBox="0 0 17 17" fill="none" xmlns="http://www.w3.org/2000/svg">
<path d="M14.6518 7.62157V5.73884C14.6518 4.62139 13.7431 3.70711 12.6324 3.70711H9.93988C9.42157 3.70711 8.95038 3.91028 8.59362 4.23536C8.23686 3.91028 7.76567 3.70711 7.24736 3.70711H4.55483C3.44416 3.70711 2.53544 4.62139 2.53544 5.73884V7.62157C2.12483 7.99405 1.8623 8.52908 1.8623 9.12505V13.1885H3.20857V11.834H13.9787V13.1885H15.3249V9.12505C15.3249 8.52908 15.0624 7.99405 14.6518 7.62157ZM9.93988 5.06159H12.6324C13.0026 5.06159 13.3055 5.36635 13.3055 5.73884V7.09332H9.26675V5.73884C9.26675 5.36635 9.56966 5.06159 9.93988 5.06159ZM3.8817 5.73884C3.8817 5.36635 4.18461 5.06159 4.55483 5.06159H7.24736C7.61758 5.06159 7.92049 5.36635 7.92049 5.73884V7.09332H3.8817V5.73884ZM3.20857 10.4795V9.12505C3.20857 8.75257 3.51148 8.44781 3.8817 8.44781H13.3055C13.6758 8.44781 13.9787 8.75257 13.9787 9.12505V10.4795H3.20857Z" fill="#0077B6"/>
</svg>
