<svg width="31" height="31" viewBox="0 0 31 31" fill="none" xmlns="http://www.w3.org/2000/svg">
<path d="M25.9246 12.0666V3.87036H23.4246V6.37036H8.42462V3.87036H5.92462V12.0666C4.43712 12.9329 3.42462 14.5266 3.42462 16.3704V21.3704C3.42462 21.7019 3.55632 22.0198 3.79074 22.2542C4.02516 22.4887 4.3431 22.6204 4.67462 22.6204H5.92462V27.6204H8.42462V22.6204H23.4246V27.6204H25.9246V22.6204H27.1746C27.5061 22.6204 27.8241 22.4887 28.0585 22.2542C28.2929 22.0198 28.4246 21.7019 28.4246 21.3704V16.3704C28.4246 14.5266 27.4109 12.9329 25.9246 12.0666ZM23.4246 8.87036V11.3704H17.1746V8.87036H23.4246ZM8.42462 8.87036H14.6746V11.3704H8.42462V8.87036ZM25.9246 20.1204H5.92462V16.3704C5.92462 14.9916 7.04587 13.8704 8.42462 13.8704H23.4246C24.8034 13.8704 25.9246 14.9916 25.9246 16.3704V20.1204Z" fill="white"/>
</svg>
