<svg width="21" height="22" viewBox="0 0 21 22" fill="none" xmlns="http://www.w3.org/2000/svg">
<path d="M16.9034 4.24559H3.39465C2.46339 4.24559 1.70605 5.00293 1.70605 5.93419V16.0658C1.70605 16.997 2.46339 17.7544 3.39465 17.7544H16.9034C17.8347 17.7544 18.592 16.997 18.592 16.0658V5.93419C18.592 5.00293 17.8347 4.24559 16.9034 4.24559ZM16.9034 5.93419V6.36562L10.149 11.6197L3.39465 6.36647V5.93419H16.9034ZM3.39465 16.0658V8.50423L9.63064 13.3547C9.77848 13.4709 9.96104 13.534 10.149 13.534C10.337 13.534 10.5196 13.4709 10.6674 13.3547L16.9034 8.50423L16.9051 16.0658H3.39465Z" fill="#555555"/>
</svg>
