<svg width="20" height="20" viewBox="0 0 20 20" fill="none" xmlns="http://www.w3.org/2000/svg">
<path d="M3.33336 17.5C3.39979 17.508 3.46694 17.508 3.53336 17.5L6.8667 16.6667C7.01457 16.6315 7.15001 16.5566 7.25837 16.45L17.5 6.17501C17.8105 5.86274 17.9847 5.44032 17.9847 5.00001C17.9847 4.5597 17.8105 4.13728 17.5 3.82501L16.1834 2.50001C16.0286 2.34505 15.8448 2.22212 15.6424 2.13824C15.4401 2.05437 15.2232 2.0112 15.0042 2.0112C14.7852 2.0112 14.5683 2.05437 14.366 2.13824C14.1636 2.22212 13.9798 2.34505 13.825 2.50001L3.58336 12.7417C3.47569 12.8505 3.39815 12.9855 3.35836 13.1333L2.52503 16.4667C2.49508 16.5745 2.48715 16.6873 2.50172 16.7982C2.51629 16.9092 2.55306 17.016 2.60983 17.1125C2.66661 17.2089 2.74222 17.2929 2.83217 17.3595C2.92212 17.4261 3.02455 17.4739 3.13336 17.5C3.19979 17.508 3.26694 17.508 3.33336 17.5ZM15 3.67501L16.325 5.00001L15 6.32501L13.6834 5.00001L15 3.67501ZM4.92503 13.7583L12.5 6.17501L13.825 7.50001L6.2417 15.0833L4.48336 15.5167L4.92503 13.7583Z" fill="white"/>
</svg>
