<svg width="21" height="22" viewBox="0 0 21 22" fill="none" xmlns="http://www.w3.org/2000/svg">
<path d="M14.9501 11.2473C14.8717 11.1689 14.7787 11.1066 14.6763 11.0641C14.5738 11.0217 14.464 10.9998 14.3531 10.9998C14.2423 10.9998 14.1325 11.0217 14.03 11.0641C13.9276 11.1066 13.8346 11.1689 13.7562 11.2473L12.4104 12.5932C11.7865 12.4074 10.6222 11.9853 9.88427 11.2473C9.14636 10.5094 8.72421 9.34514 8.53846 8.7212L9.88427 7.37539C9.96275 7.29705 10.025 7.204 10.0675 7.10158C10.11 6.99915 10.1318 6.88935 10.1318 6.77847C10.1318 6.66758 10.11 6.55779 10.0675 6.45536C10.025 6.35294 9.96275 6.25989 9.88427 6.18155L6.50708 2.80436C6.42874 2.72588 6.3357 2.66363 6.23327 2.62115C6.13084 2.57867 6.02105 2.55681 5.91016 2.55681C5.79928 2.55681 5.68948 2.57867 5.58705 2.62115C5.48463 2.66363 5.39158 2.72588 5.31324 2.80436L3.02351 5.09409C2.70267 5.41493 2.52199 5.85565 2.52875 6.30566C2.54817 7.50794 2.86647 11.6838 6.15754 14.9749C9.44862 18.266 13.6245 18.5834 14.8276 18.6037H14.8513C15.2971 18.6037 15.7184 18.4281 16.0375 18.109L18.3273 15.8192C18.4057 15.7409 18.468 15.6478 18.5105 15.5454C18.5529 15.443 18.5748 15.3332 18.5748 15.2223C18.5748 15.1114 18.5529 15.0016 18.5105 14.8992C18.468 14.7968 18.4057 14.7037 18.3273 14.6254L14.9501 11.2473ZM14.8428 16.9143C13.7892 16.8965 10.184 16.6137 7.35138 13.7802C4.50947 10.9383 4.23423 7.32051 4.21734 6.28793L5.91016 4.59511L8.09352 6.77847L7.00184 7.87015C6.9026 7.96931 6.82964 8.09164 6.78954 8.22608C6.74945 8.36051 6.74348 8.50283 6.77219 8.64015C6.79245 8.73724 7.28806 11.0396 8.68959 12.4412C10.0911 13.8427 12.3935 14.3383 12.4906 14.3586C12.6279 14.3881 12.7703 14.3826 12.9049 14.3426C13.0394 14.3026 13.1618 14.2294 13.2606 14.1298L14.3531 13.0381L16.5365 15.2215L14.8428 16.9143Z" fill="#555555"/>
</svg>
