<svg width="31" height="31" viewBox="0 0 31 31" fill="none" xmlns="http://www.w3.org/2000/svg">
<path d="M7.00806 25.5818C7.00806 26.2448 7.27145 26.8807 7.74029 27.3496C8.20913 27.8184 8.84502 28.0818 9.50806 28.0818H22.0081C22.6711 28.0818 23.307 27.8184 23.7758 27.3496C24.2447 26.8807 24.5081 26.2448 24.5081 25.5818V10.5818H27.0081V8.08179H22.0081V5.58179C22.0081 4.91875 21.7447 4.28286 21.2758 3.81402C20.807 3.34518 20.1711 3.08179 19.5081 3.08179H12.0081C11.345 3.08179 10.7091 3.34518 10.2403 3.81402C9.77145 4.28286 9.50806 4.91875 9.50806 5.58179V8.08179H4.50806V10.5818H7.00806V25.5818ZM12.0081 5.58179H19.5081V8.08179H12.0081V5.58179ZM10.7581 10.5818H22.0081V25.5818H9.50806V10.5818H10.7581Z" fill="white"/>
<path d="M12.0081 13.0818H14.5081V23.0818H12.0081V13.0818ZM17.0081 13.0818H19.5081V23.0818H17.0081V13.0818Z" fill="white"/>
</svg>
