<svg width="30" height="30" viewBox="0 0 30 30" fill="none" xmlns="http://www.w3.org/2000/svg">
<path d="M15.3794 5.27637C8.4869 5.27637 2.8794 10.8839 2.8794 17.7764C2.87778 19.7056 3.32769 21.6084 4.19315 23.3326C4.40565 23.7576 4.83815 24.0264 5.3119 24.0264H25.4456C25.9194 24.0264 26.3531 23.7576 26.5656 23.3326C27.4311 21.6084 27.881 19.7056 27.8794 17.7764C27.8794 10.8839 22.2719 5.27637 15.3794 5.27637ZM24.6419 21.5264H6.1169C5.62844 20.3366 5.37789 19.0625 5.3794 17.7764C5.3794 12.2626 9.86565 7.77637 15.3794 7.77637C20.8931 7.77637 25.3794 12.2626 25.3794 17.7764C25.3809 19.0625 25.1304 20.3366 24.6419 21.5264Z" fill="white"/>
<path d="M14.0533 16.4501C13.7874 16.624 13.569 16.8614 13.4178 17.1409C13.2667 17.4203 13.1875 17.733 13.1875 18.0508C13.1875 18.3685 13.2667 18.6812 13.4178 18.9606C13.569 19.2401 13.7874 19.4775 14.0533 19.6514C14.2634 19.7896 14.4987 19.8851 14.7457 19.9323C14.9928 19.9794 15.2467 19.9774 15.493 19.9263C15.7392 19.8753 15.973 19.7761 16.1809 19.6345C16.3888 19.493 16.5667 19.3118 16.7045 19.1014L21.657 11.5539C21.661 11.5473 21.6631 11.5397 21.6631 11.532C21.6631 11.5243 21.661 11.5167 21.657 11.5101C21.6511 11.5011 21.6419 11.4948 21.6314 11.4924C21.6209 11.4901 21.6099 11.492 21.6008 11.4976L14.0533 16.4501Z" fill="white"/>
</svg>
