<?xml version="1.0" standalone="no"?>
<!DOCTYPE svg PUBLIC "-//W3C//DTD SVG 20010904//EN"
 "http://www.w3.org/TR/2001/REC-SVG-20010904/DTD/svg10.dtd">
<svg version="1.0" xmlns="http://www.w3.org/2000/svg"
 width="900.000000pt" height="900.000000pt" viewBox="0 0 900.000000 900.000000"
 preserveAspectRatio="xMidYMid meet">
<metadata>
Created by potrace 1.10, written by Peter Selinger 2001-2011
</metadata>
<g transform="translate(0.000000,900.000000) scale(0.100000,-0.100000)"
fill="#000000" stroke="none">
<path d="M4440 8986 c0 -8 -10 -18 -22 -22 -12 -3 -63 -26 -115 -50 -52 -24
-96 -44 -98 -44 -3 0 -48 -20 -101 -45 -52 -25 -97 -45 -99 -45 -3 0 -43 -18
-89 -40 -46 -21 -111 -50 -143 -64 -32 -13 -98 -43 -146 -65 -49 -23 -90 -41
-92 -41 -2 0 -46 -20 -99 -45 -53 -25 -99 -45 -101 -45 -3 0 -48 -20 -101 -45
-52 -25 -97 -45 -100 -45 -2 0 -32 -13 -66 -29 -120 -55 -199 -91 -203 -91 -3
0 -40 -16 -82 -36 -43 -20 -103 -47 -133 -61 -30 -13 -83 -38 -117 -54 -35
-16 -65 -29 -68 -29 -3 0 -48 -20 -101 -45 -52 -25 -97 -45 -99 -45 -3 0 -40
-16 -82 -36 -43 -19 -91 -41 -108 -49 -16 -7 -55 -24 -85 -38 -159 -73 -192
-87 -195 -87 -3 0 -40 -16 -82 -36 -43 -19 -87 -39 -98 -44 -11 -5 -64 -30
-118 -55 -54 -25 -100 -45 -103 -45 -3 0 -45 -18 -179 -80 -22 -10 -67 -30
-100 -45 -33 -14 -88 -40 -122 -56 -35 -16 -65 -29 -67 -29 -5 0 -94 -40 -211
-95 -27 -13 -72 -33 -100 -45 -72 -31 -103 -45 -165 -73 -30 -14 -77 -35 -105
-47 -27 -12 -93 -42 -146 -66 -53 -24 -99 -44 -104 -44 -4 0 -20 -9 -35 -20
-63 -45 -60 7 -60 -1002 l0 -918 133 0 c90 0 137 4 145 12 9 9 12 212 12 853
l0 842 65 31 c35 18 67 32 71 32 3 0 38 15 77 34 40 18 88 40 107 48 19 9 60
27 90 41 160 73 192 87 196 87 2 0 32 13 66 29 113 52 199 91 203 91 2 0 43
18 92 41 192 88 304 139 308 139 2 0 46 20 99 45 53 25 99 45 101 45 4 0 62
26 211 96 28 13 53 24 57 24 3 0 48 20 101 45 53 25 99 45 101 45 3 0 48 20
101 45 52 25 97 45 99 45 3 0 40 16 82 36 43 19 92 41 108 49 17 7 55 24 85
38 30 14 78 35 105 47 28 12 73 33 100 45 146 67 187 85 191 85 2 0 47 20 100
45 52 25 97 45 99 45 4 0 63 27 211 96 28 13 53 24 56 24 4 0 46 18 95 41 48
22 108 50 133 61 25 11 73 33 107 49 35 16 65 29 68 29 2 0 40 16 82 36 43 19
92 41 108 49 17 7 55 24 85 38 204 93 238 106 260 99 8 -2 42 -17 75 -32 33
-15 83 -38 110 -50 28 -12 75 -33 105 -47 30 -14 73 -33 95 -43 22 -9 63 -28
90 -40 28 -12 75 -34 105 -47 30 -13 75 -34 100 -45 25 -11 70 -31 100 -45 30
-13 69 -30 85 -38 29 -13 86 -39 190 -85 28 -12 73 -32 100 -45 28 -12 73 -33
100 -44 28 -12 64 -28 80 -36 17 -8 62 -28 100 -45 39 -18 84 -38 100 -45 17
-8 55 -25 85 -38 30 -14 82 -37 115 -52 60 -27 154 -69 324 -145 49 -21 118
-52 153 -68 57 -27 93 -43 198 -89 19 -8 53 -23 75 -33 22 -10 92 -42 155 -70
63 -29 148 -67 188 -86 41 -19 76 -34 79 -34 4 0 31 -12 62 -26 68 -31 121
-56 181 -82 25 -11 85 -39 133 -61 49 -23 91 -41 92 -41 4 0 188 -83 323 -146
41 -19 75 -34 77 -34 2 0 34 -14 72 -31 37 -17 84 -37 103 -46 19 -8 53 -23
75 -33 22 -10 66 -30 98 -44 l57 -25 0 -843 c0 -643 3 -847 12 -856 8 -8 57
-12 155 -12 l143 0 0 925 c0 822 -2 925 -15 925 -9 0 -20 11 -25 24 -8 21 -58
66 -74 66 -4 0 -37 14 -74 31 -37 17 -103 47 -147 66 -96 43 -177 80 -268 122
-37 17 -69 31 -71 31 -4 0 -61 25 -181 80 -168 77 -207 95 -258 116 -32 14
-93 41 -135 60 -42 20 -90 42 -107 49 -16 8 -65 30 -108 49 -42 20 -79 36 -82
36 -2 0 -48 20 -101 45 -53 25 -97 45 -99 45 -2 0 -59 25 -127 56 -68 31 -136
62 -153 69 -16 7 -65 29 -108 49 -44 20 -80 36 -82 36 -3 0 -66 28 -180 80
-168 77 -207 95 -258 116 -32 14 -93 41 -135 60 -42 20 -90 42 -107 49 -16 8
-65 30 -108 49 -42 20 -79 36 -82 36 -2 0 -48 20 -102 45 -54 25 -107 50 -118
55 -11 5 -67 30 -125 55 -58 26 -118 53 -135 60 -16 8 -65 30 -108 49 -42 20
-79 36 -82 36 -2 0 -48 20 -101 45 -53 25 -98 45 -100 45 -2 0 -47 20 -100 45
-53 25 -97 45 -99 45 -4 0 -77 33 -200 90 -33 15 -70 30 -82 34 -13 4 -23 14
-23 22 0 10 -13 14 -50 14 -37 0 -50 -4 -50 -14z"/>
<path d="M4287 7764 c-97 -19 -226 -66 -287 -104 -8 -5 -33 -19 -55 -31 -145
-78 -331 -284 -396 -439 -12 -30 -25 -59 -29 -65 -4 -5 -14 -34 -24 -62 -62
-195 -62 -457 0 -642 15 -48 58 -145 74 -171 5 -8 19 -33 30 -55 60 -110 230
-281 340 -341 19 -10 42 -24 50 -30 33 -25 224 -93 302 -108 198 -37 448 -10
613 68 28 13 60 26 73 30 12 4 22 12 22 17 0 5 6 9 14 9 19 0 130 82 194 144
66 63 142 157 171 211 12 22 26 47 31 55 16 25 57 122 75 175 28 86 45 206 45
322 0 132 -10 169 -43 158 -12 -4 -64 -13 -115 -21 -138 -20 -132 -13 -132
-151 0 -348 -221 -628 -575 -728 -74 -21 -301 -16 -380 8 -221 67 -406 230
-488 432 -47 116 -57 166 -57 294 0 220 73 394 227 542 100 95 197 150 344
193 76 22 289 22 350 1 71 -25 80 -18 118 92 48 141 49 157 14 172 -94 39
-369 52 -506 25z"/>
<path d="M4965 7270 c-253 -253 -467 -460 -475 -460 -9 0 -53 38 -100 85 -47
47 -89 85 -95 85 -13 0 -195 -182 -195 -196 0 -5 71 -80 158 -166 173 -171
202 -189 270 -168 29 10 150 125 570 543 292 293 532 536 532 542 0 13 -182
195 -195 195 -6 0 -217 -207 -470 -460z"/>
<path d="M7463 5531 c-45 -11 -80 -36 -97 -69 -8 -15 -44 -119 -81 -232 -37
-113 -70 -212 -74 -220 -4 -8 -31 -89 -60 -180 -29 -91 -57 -174 -61 -185 -30
-72 -48 -156 -40 -186 29 -100 56 -109 335 -109 123 0 230 -3 239 -6 14 -5 16
-35 16 -230 l0 -224 -138 0 c-94 0 -142 -4 -150 -12 -8 -8 -12 -53 -12 -138 0
-85 4 -130 12 -138 9 -9 119 -12 433 -12 231 0 425 4 432 8 7 4 12 53 14 140
3 109 1 135 -11 142 -8 6 -75 10 -147 10 -131 0 -133 0 -134 23 -4 172 -1 418
5 424 4 5 119 10 254 13 178 4 253 9 270 18 35 20 62 72 62 118 0 35 -71 277
-100 339 -5 11 -25 74 -46 140 -20 66 -41 127 -45 135 -4 8 -31 88 -60 178
-60 185 -74 212 -121 238 -30 17 -63 19 -348 21 -173 1 -330 -2 -347 -6z m514
-296 c12 -8 25 -29 28 -47 4 -18 11 -39 16 -48 10 -18 56 -160 70 -213 5 -21
13 -45 19 -55 14 -26 70 -198 70 -215 0 -8 -7 -18 -16 -21 -21 -8 -693 -8
-733 0 -24 5 -31 12 -31 30 0 12 4 25 9 28 5 3 12 23 16 43 4 21 10 43 15 48
4 6 18 46 30 90 13 44 27 85 31 90 3 6 10 26 14 45 4 19 11 40 15 45 4 6 18
45 30 88 15 49 31 84 44 93 30 21 342 20 373 -1z"/>
<path d="M980 5080 c-141 -22 -264 -108 -328 -229 -58 -108 -56 -80 -62 -861
l-5 -724 -39 -8 c-22 -5 -44 -12 -50 -17 -6 -4 -24 -11 -39 -15 -16 -4 -46
-18 -68 -31 -21 -14 -42 -25 -45 -25 -9 0 -91 -67 -129 -105 -38 -38 -105
-120 -105 -129 0 -3 -10 -23 -23 -44 -25 -40 -58 -128 -76 -205 -8 -34 -11
-410 -11 -1317 0 -1230 1 -1270 19 -1301 10 -17 33 -40 50 -50 29 -18 55 -19
371 -19 470 0 443 -20 448 348 l4 242 2248 0 2248 0 4 -243 c3 -271 7 -287 73
-326 35 -20 48 -21 375 -21 317 0 342 1 371 19 17 11 40 32 50 48 18 27 19 75
19 1305 0 1360 1 1317 -46 1436 -44 110 -128 230 -206 294 -91 74 -255 158
-309 158 -11 0 -22 6 -25 13 -3 8 -6 337 -8 733 -3 703 -3 720 -24 772 -64
162 -169 255 -333 296 -59 15 -257 16 -2185 15 -1165 -1 -2139 -5 -2164 -9z
m4366 -334 l44 -43 0 -706 0 -706 -137 -3 c-76 -2 -143 -2 -150 0 -8 3 -13 93
-16 340 -4 358 -5 371 -57 472 -31 60 -110 141 -169 174 -104 56 -102 56 -676
56 -499 0 -533 -1 -583 -19 -145 -53 -236 -147 -289 -298 -13 -40 -17 -101
-19 -363 -2 -173 -3 -325 -4 -337 0 -23 -1 -23 -149 -23 l-149 0 -6 33 c-3 19
-6 171 -6 338 1 322 -1 339 -50 438 -45 91 -152 181 -257 214 -46 15 -115 17
-583 17 -468 0 -537 -2 -583 -17 -104 -33 -210 -121 -257 -213 -50 -99 -52
-116 -57 -472 l-5 -338 -149 0 -149 0 0 705 0 706 45 44 44 45 2162 0 2162 0
43 -44z m-2729 -724 c18 -12 43 -37 55 -55 23 -32 23 -35 23 -349 0 -174 -3
-319 -6 -323 -8 -8 -1190 -7 -1198 1 -9 8 -14 519 -6 593 6 58 11 67 50 106
29 30 54 45 77 48 18 2 244 3 503 3 l470 -1 32 -23z m2032 21 c47 -5 61 -12
98 -49 l43 -43 0 -330 c0 -254 -3 -330 -12 -332 -7 -2 -277 -3 -600 -1 l-588
2 0 330 0 331 44 44 c34 33 53 45 83 48 66 7 876 7 932 0z m1026 -1066 c166
-74 241 -148 297 -294 23 -57 23 -66 23 -470 0 -226 -4 -415 -8 -420 -5 -4
-1287 -8 -2850 -8 l-2842 0 -3 420 c-3 464 -2 465 64 575 70 117 191 194 329
210 33 4 1160 7 2505 6 2327 -1 2447 -2 2485 -19z m312 -1490 c9 -10 16 -1158
7 -1182 -5 -12 -31 -15 -155 -15 -82 0 -149 3 -149 8 -1 4 -2 113 -3 242 -2
216 -4 238 -22 270 -12 19 -36 43 -55 55 -35 20 -39 20 -2470 20 -2431 0
-2435 0 -2470 -20 -70 -42 -75 -61 -78 -333 l-3 -242 -150 0 -149 0 0 599 c0
470 3 600 13 604 22 9 5675 2 5684 -6z"/>
<path d="M6715 3281 c-48 -12 -75 -30 -95 -64 -19 -31 -20 -61 -20 -1173 0
-1032 2 -1142 16 -1148 20 -8 212 -8 241 0 l22 6 3 438 c2 241 7 442 11 447 5
4 410 8 900 8 l892 0 3 -439 c1 -304 6 -443 13 -453 9 -10 47 -13 155 -13
l144 0 0 1150 c0 996 -2 1150 -14 1150 -8 0 -21 12 -28 27 -7 14 -29 36 -48
47 -35 21 -42 21 -1100 23 -586 0 -1078 -2 -1095 -6z m1963 -289 c10 -7 12
-105 10 -458 l-3 -449 -892 0 c-490 0 -895 4 -900 8 -9 10 -17 815 -8 864 4
22 12 33 28 36 41 8 1752 7 1765 -1z"/>
<path d="M7523 2682 c-15 -2 -23 -10 -23 -23 -1 -10 -1 -64 -1 -119 0 -55 0
-109 1 -120 0 -20 7 -20 289 -20 254 0 290 2 295 16 9 23 7 237 -2 251 -6 9
-78 13 -272 15 -146 2 -275 2 -287 0z"/>
</g>
</svg>
