<svg width="30" height="30" viewBox="0 0 30 30" fill="none" xmlns="http://www.w3.org/2000/svg">
<path d="M26.25 12.5H8.75V8.75C8.75 7.37125 9.87125 6.25 11.25 6.25C12.6287 6.25 13.75 7.37125 13.75 8.75H16.25C16.25 5.9925 14.0075 3.75 11.25 3.75C8.4925 3.75 6.25 5.9925 6.25 8.75V12.5H3.75C3.41848 12.5 3.10054 12.6317 2.86612 12.8661C2.6317 13.1005 2.5 13.4185 2.5 13.75V16.25C2.5 19.5075 4.5925 22.2787 7.5 23.3125V27.5H10V23.75H20V27.5H22.5V23.3125C25.4075 22.2787 27.5 19.5075 27.5 16.25V13.75C27.5 13.4185 27.3683 13.1005 27.1339 12.8661C26.8995 12.6317 26.5815 12.5 26.25 12.5ZM25 16.25C25 19.0075 22.7575 21.25 20 21.25H10C7.2425 21.25 5 19.0075 5 16.25V15H25V16.25Z" fill="#666666"/>
</svg>
