<svg width="30" height="30" viewBox="0 0 30 30" fill="none" xmlns="http://www.w3.org/2000/svg">
<path d="M13.55 27.3388L15 27.5C14.644 24.6511 13.3387 22.0051 11.2948 19.9888C9.2508 17.9725 6.58728 16.7034 3.73375 16.3863L2.5 16.25L2.52625 16.4663C2.87504 19.2535 4.15238 21.8421 6.15231 23.8146C8.15224 25.787 10.7582 27.0285 13.55 27.3388ZM27.4738 16.4663L27.5 16.25L26.2663 16.3863C20.3913 17.04 15.7325 21.6362 15 27.5L16.45 27.3388C19.2418 27.0285 21.8478 25.787 23.8477 23.8146C25.8476 21.8421 27.125 19.2535 27.4738 16.4663ZM22.5788 6.875C22.1643 6.15727 21.4818 5.63356 20.6812 5.41907C19.8807 5.20457 19.0277 5.31687 18.31 5.73125C18.2325 5.775 18.1712 5.8325 18.1 5.8825C18.1062 5.79625 18.125 5.7125 18.125 5.625C18.125 4.7962 17.7958 4.00134 17.2097 3.41529C16.6237 2.82924 15.8288 2.5 15 2.5C14.1712 2.5 13.3763 2.82924 12.7903 3.41529C12.2042 4.00134 11.875 4.7962 11.875 5.625C11.875 5.7125 11.8938 5.79625 11.9012 5.8825C11.83 5.8325 11.7675 5.775 11.6912 5.73125C10.9739 5.32339 10.1243 5.21582 9.32792 5.43204C8.53154 5.64825 7.85301 6.17068 7.44039 6.88533C7.02778 7.59998 6.91458 8.44882 7.12551 9.24662C7.33643 10.0444 7.85435 10.7264 8.56625 11.1438C8.6425 11.1875 8.72375 11.2137 8.80125 11.25C8.72375 11.2863 8.6425 11.3125 8.56625 11.3562C7.85435 11.7736 7.33643 12.4556 7.12551 13.2534C6.91458 14.0512 7.02778 14.9 7.44039 15.6147C7.85301 16.3293 8.53154 16.8518 9.32792 17.068C10.1243 17.2842 10.9739 17.1766 11.6912 16.7688C11.7687 16.725 11.83 16.6675 11.9012 16.6175C11.8938 16.7037 11.875 16.7875 11.875 16.875C11.875 17.7038 12.2042 18.4987 12.7903 19.0847C13.3763 19.6708 14.1712 20 15 20C15.8288 20 16.6237 19.6708 17.2097 19.0847C17.7958 18.4987 18.125 17.7038 18.125 16.875C18.125 16.7875 18.1062 16.7037 18.0988 16.6175C18.17 16.6675 18.2313 16.725 18.3088 16.7688C19.0261 17.1766 19.8757 17.2842 20.6721 17.068C21.4685 16.8518 22.147 16.3293 22.5596 15.6147C22.9722 14.9 23.0854 14.0512 22.8745 13.2534C22.6636 12.4556 22.1456 11.7736 21.4338 11.3562C21.3575 11.3125 21.2762 11.2863 21.1987 11.25C21.2775 11.2137 21.3575 11.1875 21.4338 11.1438C21.7892 10.9387 22.1008 10.6655 22.3508 10.34C22.6007 10.0145 22.7841 9.64293 22.8904 9.24653C22.9967 8.85013 23.0239 8.43668 22.9705 8.02977C22.917 7.62286 22.7839 7.23047 22.5788 6.875ZM15 15C14.0054 15 13.0516 14.6049 12.3483 13.9017C11.6451 13.1984 11.25 12.2446 11.25 11.25C11.25 10.2554 11.6451 9.30161 12.3483 8.59835C13.0516 7.89509 14.0054 7.5 15 7.5C15.9946 7.5 16.9484 7.89509 17.6517 8.59835C18.3549 9.30161 18.75 10.2554 18.75 11.25C18.75 12.2446 18.3549 13.1984 17.6517 13.9017C16.9484 14.6049 15.9946 15 15 15Z" fill="#666666"/>
</svg>
