<svg width="25" height="25" viewBox="0 0 25 25" fill="none" xmlns="http://www.w3.org/2000/svg">
<path d="M19.1337 13.3663C19.0177 13.2501 18.8799 13.1579 18.7283 13.095C18.5767 13.0321 18.4141 12.9997 18.2499 12.9997C18.0858 12.9997 17.9232 13.0321 17.7716 13.095C17.6199 13.1579 17.4822 13.2501 17.3662 13.3663L15.3737 15.3587C14.4499 15.0837 12.7262 14.4587 11.6337 13.3663C10.5412 12.2738 9.91618 10.55 9.64118 9.62625L11.6337 7.63375C11.7499 7.51776 11.842 7.38001 11.9049 7.22837C11.9678 7.07672 12.0002 6.91417 12.0002 6.75C12.0002 6.58583 11.9678 6.42328 11.9049 6.27163C11.842 6.11999 11.7499 5.98223 11.6337 5.86625L6.63368 0.86625C6.51769 0.750067 6.37994 0.657895 6.2283 0.595007C6.07665 0.532118 5.9141 0.499748 5.74993 0.499748C5.58576 0.499748 5.42321 0.532118 5.27156 0.595007C5.11992 0.657895 4.98216 0.750067 4.86618 0.86625L1.47618 4.25625C1.00118 4.73125 0.733679 5.38375 0.743679 6.05C0.772429 7.83 1.24368 14.0125 6.11618 18.885C10.9887 23.7575 17.1712 24.2275 18.9524 24.2575H18.9874C19.6474 24.2575 20.2712 23.9975 20.7437 23.525L24.1337 20.135C24.2499 20.019 24.342 19.8813 24.4049 19.7296C24.4678 19.578 24.5002 19.4154 24.5002 19.2512C24.5002 19.0871 24.4678 18.9245 24.4049 18.7729C24.342 18.6212 24.2499 18.4835 24.1337 18.3675L19.1337 13.3663ZM18.9749 21.7562C17.4149 21.73 12.0774 21.3113 7.88368 17.1162C3.67618 12.9088 3.26868 7.5525 3.24368 6.02375L5.74993 3.5175L8.98243 6.75L7.36618 8.36625C7.21926 8.51306 7.11123 8.69417 7.05187 8.89321C6.99251 9.09225 6.98368 9.30294 7.02618 9.50625C7.05618 9.65 7.78993 13.0587 9.86493 15.1337C11.9399 17.2087 15.3487 17.9425 15.4924 17.9725C15.6956 18.0162 15.9065 18.0081 16.1057 17.9489C16.305 17.8897 16.4861 17.7813 16.6324 17.6337L18.2499 16.0175L21.4824 19.25L18.9749 21.7562Z" fill="#777777"/>
</svg>
