<svg width="30" height="30" viewBox="0 0 30 30" fill="none" xmlns="http://www.w3.org/2000/svg">
<path d="M12.9813 27.235C13.1307 27.352 13.3049 27.4333 13.4905 27.4727C13.6762 27.5122 13.8684 27.5087 14.0525 27.4625L24.0525 24.9625C24.3231 24.8952 24.5635 24.7393 24.7352 24.5196C24.9069 24.2998 25.0001 24.0289 25 23.75V6.25002C24.9999 5.97119 24.9066 5.7004 24.7349 5.48069C24.5633 5.26099 24.323 5.105 24.0525 5.03752L14.0525 2.53752C13.8683 2.49233 13.6763 2.48951 13.4909 2.52927C13.3055 2.56902 13.1315 2.65032 12.982 2.76705C12.8326 2.88377 12.7115 3.03288 12.6281 3.20314C12.5446 3.3734 12.5008 3.56039 12.5 3.75002V5.00002H7.5C7.16848 5.00002 6.85054 5.13172 6.61612 5.36614C6.3817 5.60056 6.25 5.9185 6.25 6.25002V23.75C6.25 24.0815 6.3817 24.3995 6.61612 24.6339C6.85054 24.8683 7.16848 25 7.5 25H12.5V26.25C12.5 26.635 12.6775 26.9988 12.9813 27.235ZM15 5.35127L22.5 7.22627V22.7738L15 24.6488V5.35127ZM8.75 22.5V7.50002H12.5V22.5H8.75Z" fill="#666666"/>
<path d="M17.8025 16.4488C18.36 16.3088 18.75 15.8088 18.75 15.235V14.7638C18.7498 14.4323 18.618 14.1144 18.3834 13.8801C18.1489 13.6458 17.8309 13.5142 17.4994 13.5144C17.1679 13.5146 16.85 13.6464 16.6157 13.881C16.3814 14.1155 16.2498 14.4335 16.25 14.765V15.2363C16.2501 15.4262 16.2934 15.6135 16.3766 15.7842C16.4599 15.9548 16.581 16.1042 16.7306 16.2211C16.8802 16.338 17.0545 16.4192 17.2403 16.4587C17.426 16.4981 17.6183 16.4947 17.8025 16.4488Z" fill="#666666"/>
</svg>
