<svg width="21" height="20" viewBox="0 0 21 20" fill="none" xmlns="http://www.w3.org/2000/svg">
<path d="M4.35372 5.43081C4.01618 5.7704 3.74843 6.17356 3.56576 6.61727C3.38308 7.06097 3.28906 7.53653 3.28906 8.01679C3.28906 8.49705 3.38308 8.97261 3.56576 9.41632C3.74843 9.86002 4.01618 10.2632 4.35372 10.6028L10.5589 16.8459L16.7641 10.6028C17.4458 9.91693 17.8288 8.98672 17.8288 8.01679C17.8288 7.04686 17.4458 6.11665 16.7641 5.43081C16.0824 4.74496 15.1579 4.35966 14.1938 4.35966C13.2298 4.35966 12.3052 4.74496 11.6235 5.43081L10.5589 6.50194L9.49429 5.43081C9.15676 5.09121 8.75604 4.82182 8.31503 4.63803C7.87402 4.45425 7.40135 4.35965 6.924 4.35965C6.44666 4.35965 5.97398 4.45425 5.53297 4.63803C5.09196 4.82182 4.69125 5.09121 4.35372 5.43081V5.43081Z" stroke="#0077B6" stroke-width="1.62044" stroke-linecap="round" stroke-linejoin="round"/>
</svg>
