<svg width="30" height="31" viewBox="0 0 30 31" fill="none" xmlns="http://www.w3.org/2000/svg">
<path d="M23.7969 17.2387V12.7562C23.7969 8.73498 21.0656 5.34748 17.3656 4.32873C16.9994 3.40623 16.1044 2.75623 15.0469 2.75623C13.9894 2.75623 13.0944 3.40623 12.7281 4.32873C9.02813 5.34873 6.29688 8.73498 6.29688 12.7562V17.2387L4.16313 19.3725C4.04682 19.4884 3.95459 19.6261 3.89173 19.7778C3.82888 19.9294 3.79664 20.092 3.79688 20.2562V22.7562C3.79688 23.0877 3.92857 23.4057 4.16299 23.6401C4.39741 23.8745 4.71536 24.0062 5.04688 24.0062H25.0469C25.3784 24.0062 25.6963 23.8745 25.9308 23.6401C26.1652 23.4057 26.2969 23.0877 26.2969 22.7562V20.2562C26.2971 20.092 26.2649 19.9294 26.202 19.7778C26.1392 19.6261 26.0469 19.4884 25.9306 19.3725L23.7969 17.2387ZM23.7969 21.5062H6.29688V20.7737L8.43063 18.64C8.54693 18.5241 8.63916 18.3864 8.70202 18.2347C8.76488 18.083 8.79711 17.9204 8.79688 17.7562V12.7562C8.79688 9.30998 11.6006 6.50623 15.0469 6.50623C18.4931 6.50623 21.2969 9.30998 21.2969 12.7562V17.7562C21.2969 18.0887 21.4281 18.4062 21.6631 18.64L23.7969 20.7737V21.5062ZM15.0469 27.7562C15.821 27.7572 16.5762 27.517 17.2075 27.0689C17.8388 26.6209 18.3148 25.9873 18.5694 25.2562H11.5244C11.779 25.9873 12.255 26.6209 12.8863 27.0689C13.5176 27.517 14.2728 27.7572 15.0469 27.7562Z" fill="#777777"/>
</svg>
