<svg width="31" height="31" viewBox="0 0 31 31" fill="none" xmlns="http://www.w3.org/2000/svg">
<path d="M27.1746 7.62036H24.6746L23.0871 6.03286C22.513 5.45814 21.7369 5.13067 20.9246 5.12036H17.7996C17.6245 4.41886 17.2239 3.79427 16.6593 3.3426C16.0947 2.89093 15.3974 2.63718 14.6746 2.62036V10.5704C14.7389 11.8328 15.2379 13.0341 16.0871 13.9704C17.4853 15.3145 19.3141 16.1204 21.2496 16.2454L25.5621 14.5204C26.0681 14.3172 26.5237 14.0062 26.8972 13.609C27.2707 13.2118 27.553 12.7379 27.7246 12.2204L28.4246 10.3079C28.4436 10.1794 28.4436 10.0488 28.4246 9.92036V8.87036C28.4246 8.53884 28.2929 8.2209 28.0585 7.98648C27.8241 7.75206 27.5061 7.62036 27.1746 7.62036ZM20.9246 10.1204C20.6774 10.1204 20.4357 10.0471 20.2302 9.9097C20.0246 9.77235 19.8644 9.57712 19.7698 9.34872C19.6752 9.12031 19.6504 8.86897 19.6986 8.6265C19.7469 8.38402 19.8659 8.16129 20.0407 7.98648C20.2156 7.81166 20.4383 7.69261 20.6808 7.64438C20.9232 7.59615 21.1746 7.6209 21.403 7.71551C21.6314 7.81012 21.8266 7.97034 21.964 8.1759C22.1013 8.38146 22.1746 8.62313 22.1746 8.87036C22.1746 9.20188 22.0429 9.51982 21.8085 9.75424C21.5741 9.98867 21.2561 10.1204 20.9246 10.1204Z" fill="white"/>
<path d="M15.1496 14.7954C14.2777 13.8404 13.7079 12.6486 13.5121 11.3704H8.42462C8.0906 11.3925 7.75571 11.3429 7.44238 11.2251C7.12905 11.1073 6.8445 10.9239 6.6078 10.6872C6.37109 10.4505 6.18769 10.1659 6.06986 9.8526C5.95204 9.53927 5.90252 9.20438 5.92462 8.87036C5.92462 8.53884 5.79293 8.2209 5.55851 7.98648C5.32408 7.75206 5.00614 7.62036 4.67462 7.62036C4.3431 7.62036 4.02516 7.75206 3.79074 7.98648C3.55632 8.2209 3.42462 8.53884 3.42462 8.87036C3.43718 9.73782 3.64211 10.5917 4.02462 11.3704C4.44631 12.188 5.10976 12.8558 5.92462 13.2829V27.6204H9.67462V21.3704H17.1746V27.6204H20.9246V17.4579C18.7441 17.2861 16.6963 16.342 15.1496 14.7954Z" fill="white"/>
</svg>
