<svg width="31" height="30" viewBox="0 0 31 30" fill="none" xmlns="http://www.w3.org/2000/svg">
<path d="M15.231 2.01758C11.9288 2.05969 8.77383 3.39017 6.43869 5.72531C4.10355 8.06045 2.77307 11.2155 2.73096 14.5176C2.74639 16.4412 3.20561 18.3353 4.07285 20.0525C4.94009 21.7696 6.19195 23.2634 7.73096 24.4176V24.5176H7.85596C9.97244 26.1394 12.5645 27.0184 15.231 27.0184C17.8974 27.0184 20.4895 26.1394 22.606 24.5176H22.731V24.4176C24.27 23.2634 25.5218 21.7696 26.3891 20.0525C27.2563 18.3353 27.7155 16.4412 27.731 14.5176C27.6888 11.2155 26.3584 8.06045 24.0232 5.72531C21.6881 3.39017 18.5331 2.05969 15.231 2.01758ZM10.3185 23.1801C10.5009 22.3444 10.9636 21.5962 11.6298 21.0596C12.296 20.523 13.1256 20.2303 13.981 20.2301H16.481C17.3363 20.2303 18.1659 20.523 18.8321 21.0596C19.4983 21.5962 19.961 22.3444 20.1435 23.1801C18.6545 24.0561 16.9585 24.518 15.231 24.518C13.5035 24.518 11.8074 24.0561 10.3185 23.1801ZM22.2435 21.5676C21.768 20.4313 20.9674 19.4608 19.9421 18.778C18.9169 18.0953 17.7127 17.7307 16.481 17.7301H13.981C12.7492 17.7307 11.545 18.0953 10.5198 18.778C9.49456 19.4608 8.69392 20.4313 8.21846 21.5676C7.28179 20.6463 6.53583 19.5495 6.02322 18.3398C5.51061 17.1302 5.2414 15.8313 5.23096 14.5176C5.26338 11.8755 6.32736 9.35074 8.19574 7.48236C10.0641 5.61398 12.5889 4.55 15.231 4.51758C17.873 4.55 20.3978 5.61398 22.2662 7.48236C24.1346 9.35074 25.1985 11.8755 25.231 14.5176C25.2205 15.8313 24.9513 17.1302 24.4387 18.3398C23.9261 19.5495 23.1801 20.6463 22.2435 21.5676Z" fill="white"/>
<path d="M15.2308 7.01756C14.57 7.00217 13.9129 7.12098 13.2993 7.3668C12.6858 7.61262 12.1284 7.98036 11.661 8.44775C11.1936 8.91515 10.8259 9.47249 10.5801 10.0861C10.3342 10.6997 10.2154 11.3567 10.2308 12.0176C10.2154 12.6784 10.3342 13.3355 10.5801 13.949C10.8259 14.5626 11.1936 15.12 11.661 15.5874C12.1284 16.0548 12.6858 16.4225 13.2993 16.6683C13.9129 16.9141 14.57 17.033 15.2308 17.0176C15.8916 17.033 16.5487 16.9141 17.1623 16.6683C17.7759 16.4225 18.3332 16.0548 18.8006 15.5874C19.268 15.12 19.6358 14.5626 19.8816 13.949C20.1274 13.3355 20.2462 12.6784 20.2308 12.0176C20.2462 11.3567 20.1274 10.6997 19.8816 10.0861C19.6358 9.47249 19.268 8.91515 18.8006 8.44775C18.3332 7.98036 17.7759 7.61262 17.1623 7.3668C16.5487 7.12098 15.8916 7.00217 15.2308 7.01756ZM15.2308 14.5176C14.8983 14.5336 14.566 14.48 14.2554 14.36C13.9448 14.2401 13.6627 14.0565 13.4273 13.8211C13.1919 13.5856 13.0083 13.3036 12.8883 12.993C12.7684 12.6824 12.7147 12.3501 12.7308 12.0176C12.7147 11.685 12.7684 11.3527 12.8883 11.0422C13.0083 10.7316 13.1919 10.4495 13.4273 10.2141C13.6627 9.97863 13.9448 9.79504 14.2554 9.67509C14.566 9.55514 14.8983 9.50148 15.2308 9.51756C15.5634 9.50148 15.8956 9.55514 16.2062 9.67509C16.5168 9.79504 16.7989 9.97863 17.0343 10.2141C17.2698 10.4495 17.4533 10.7316 17.5733 11.0422C17.6932 11.3527 17.7469 11.685 17.7308 12.0176C17.7469 12.3501 17.6932 12.6824 17.5733 12.993C17.4533 13.3036 17.2698 13.5856 17.0343 13.8211C16.7989 14.0565 16.5168 14.2401 16.2062 14.36C15.8956 14.48 15.5634 14.5336 15.2308 14.5176Z" fill="white"/>
</svg>
