<svg width="31" height="31" viewBox="0 0 31 31" fill="none" xmlns="http://www.w3.org/2000/svg">
<path d="M9.67462 21.3704C11.1146 21.3684 12.5098 20.8701 13.6251 19.9592C14.7404 19.0484 15.5075 17.7809 15.7971 16.3704H18.4246V18.8704H20.9246V16.3704H23.4246V20.1204H25.9246V16.3704H27.1746V13.8704H15.7971C15.5075 12.4598 14.7404 11.1923 13.6251 10.2815C12.5098 9.37067 11.1146 8.87229 9.67462 8.87036C6.22837 8.87036 3.42462 11.6741 3.42462 15.1204C3.42462 18.5666 6.22837 21.3704 9.67462 21.3704ZM9.67462 11.3704C11.7421 11.3704 13.4246 13.0529 13.4246 15.1204C13.4246 17.1879 11.7421 18.8704 9.67462 18.8704C7.60712 18.8704 5.92462 17.1879 5.92462 15.1204C5.92462 13.0529 7.60712 11.3704 9.67462 11.3704Z" fill="white"/>
</svg>
