<svg width="30" height="31" viewBox="0 0 30 31" fill="none" xmlns="http://www.w3.org/2000/svg">
<path d="M15.0001 6.24376C13.6381 4.99139 11.8554 4.29632 10.0051 4.29626C9.02577 4.29728 8.05632 4.49196 7.15252 4.8691C6.24872 5.24624 5.42843 5.79838 4.73885 6.49376C1.7976 9.44751 1.79885 14.0675 4.74135 17.0088L13.9063 26.1738C14.1188 26.5475 14.5288 26.7888 15.0001 26.7888C15.1936 26.7869 15.384 26.7397 15.5559 26.6509C15.7278 26.5621 15.8765 26.4342 15.9901 26.2775L25.2589 17.0088C28.2013 14.0663 28.2013 9.44751 25.2563 6.48876C24.5671 5.79466 23.7475 5.24364 22.8446 4.86737C21.9417 4.4911 20.9733 4.29701 19.9951 4.29626C18.1449 4.29657 16.3622 4.99161 15.0001 6.24376ZM23.4888 8.25626C25.4426 10.22 25.4438 13.2875 23.4913 15.2413L15.0001 23.7325L6.50885 15.2413C4.55635 13.2875 4.5576 10.22 6.50635 8.26126C7.45635 7.31626 8.69885 6.79626 10.0051 6.79626C11.3113 6.79626 12.5488 7.31626 13.4913 8.25876L14.1163 8.88376C14.2323 8.99995 14.3701 9.09212 14.5217 9.15501C14.6734 9.2179 14.8359 9.25027 15.0001 9.25027C15.1643 9.25027 15.3268 9.2179 15.4785 9.15501C15.6301 9.09212 15.7679 8.99995 15.8838 8.88376L16.5088 8.25876C18.3988 6.37251 21.6013 6.37751 23.4888 8.25626Z" fill="#777777"/>
</svg>
